<svg version="1.1" id="Capa_1" xmlns="http://www.w3.org/2000/svg" xmlns:xlink="http://www.w3.org/1999/xlink" x="0px" y="0px"
   width="66.137px" height="66.137px" viewBox="0 0 66.137 66.137" style="enable-background:new 0 0 66.137 66.137;"
   xml:space="preserve">
    <g>
      <path d="M33.068,0C14.834,0,0,14.834,0,33.068s14.834,33.068,33.068,33.068s33.069-14.834,33.069-33.068S51.302,0,33.068,0z
         M33.068,62.136C17.04,62.136,4,49.096,4,33.068S17.04,4,33.068,4s29.069,13.04,29.069,29.068S49.096,62.136,33.068,62.136z
         M45.124,23.841l-9.228,9.227l9.228,9.226l-2.829,2.829l-9.226-9.227l-9.226,9.227l-2.829-2.828l9.227-9.227l-9.228-9.228
        l2.829-2.829l9.228,9.229l9.227-9.228L45.124,23.841z"/>
    </g>
</svg>